<svg version="1.1" xmlns="http://www.w3.org/2000/svg" xmlns:xlink="http://www.w3.org/1999/xlink" width="45.67288" height="26.2968" viewBox="0,0,45.67288,26.2968"><g transform="translate(-226.8516,-166.8516)"><g data-paper-data="{&quot;isPaintingLayer&quot;:true}" fill-rule="nonzero" stroke-linecap="butt" stroke-linejoin="miter" stroke-miterlimit="10" stroke-dasharray="" stroke-dashoffset="0" style="mix-blend-mode: normal"><path d="M228.6016,191.3984v-22.7968h22.7968v22.7968z" fill="#ff3d3d" stroke="#000000" stroke-width="3.5"/><path d="M237.72933,186.14365l0.94621,-10.94972h3.53725l-0.94621,10.94972z" data-paper-data="{&quot;index&quot;:null}" fill="#74839a" stroke="none" stroke-width="0"/><path d="M238.6989,178.82249v-3.55957h32.57641v3.55957z" data-paper-data="{&quot;index&quot;:null}" fill="#74839a" stroke="none" stroke-width="0"/><path d="M254.00886,184.6074c0,0 2.49404,-1.86417 2.8194,-2.98935c0.29707,-1.02737 -0.9444,-3.49503 -0.9444,-3.49503h3.82813c0,0 0.76885,3.64588 0.24447,5.0039c-0.48873,1.26569 -3.29135,2.88673 -3.29135,2.88673z" data-paper-data="{&quot;index&quot;:null}" fill="#74839a" stroke="none" stroke-width="0"/><path d="M242.99323,180.59698v-7.65625h9.14063v7.65625z" data-paper-data="{&quot;index&quot;:null}" fill="#52627a" stroke="none" stroke-width="0"/><path d="M259.55573,177.00323v-2.73438h8.67188v2.73438z" data-paper-data="{&quot;index&quot;:null}" fill="#52627a" stroke="none" stroke-width="0"/><path d="M270.49323,178.01885v-2.03125h2.03125v2.03125z" data-paper-data="{&quot;index&quot;:null}" fill="#74839a" stroke="none" stroke-width="0"/></g></g></svg>