<svg version="1.1" xmlns="http://www.w3.org/2000/svg" xmlns:xlink="http://www.w3.org/1999/xlink" width="127.77318" height="50.43219" viewBox="0,0,127.77318,50.43219"><g transform="translate(-176.11341,-154.7839)"><g data-paper-data="{&quot;isPaintingLayer&quot;:true}" stroke-linejoin="miter" stroke-miterlimit="10" stroke-dasharray="" stroke-dashoffset="0" style="mix-blend-mode: normal"><path d="M177.5023,166.43016v0c0,-4.28428 6.21294,-7.75737 8.11791,-7.75737h107.55476c7.24008,0.34312 9.32274,5.69999 9.32274,7.75737v31.02856c0,4.28428 -6.21293,7.75737 -8.11792,7.75737h-108.45836c-1.90498,0 -8.41912,-3.4731 -8.41912,-7.75737z" fill-opacity="0.58824" fill="#000000" fill-rule="evenodd" stroke="#3c5f27" stroke-width="0" stroke-linecap="square"/><path d="M176.11341,162.54128v0c0,-4.28428 6.35101,-7.75737 8.29831,-7.75737h109.94495c7.40098,0.34312 9.52992,5.69999 9.52992,7.75737v31.02856c0,4.28428 -6.351,7.75737 -8.29832,7.75737h-110.86863c-1.94731,0 -8.60622,-3.4731 -8.60622,-7.75737z" fill="#f2fbff" fill-rule="evenodd" stroke="#3c5f27" stroke-width="0" stroke-linecap="square"/><path d="M176.11341,162.54128v0c0,-4.28428 6.35101,-7.75737 8.29831,-7.75737h109.94495c7.40098,0.34312 9.52992,5.69999 9.52992,7.75737v31.02856c0,4.28428 -6.351,7.75737 -8.29832,7.75737h-110.86863c-1.94731,0 -8.60622,-3.4731 -8.60622,-7.75737z" fill="#f2fbff" fill-rule="evenodd" stroke="#3c5f27" stroke-width="0" stroke-linecap="square"/><text transform="translate(213.81564,183.34748) scale(0.54208,0.5)" font-size="40" xml:space="preserve" fill="#3e92cc" fill-rule="nonzero" stroke="#3e92cc" stroke-width="4" stroke-linecap="butt" stroke-linejoin="miter" stroke-miterlimit="10" stroke-dasharray="" stroke-dashoffset="0" font-family="Sans Serif" font-weight="normal" text-anchor="start" style="mix-blend-mode: normal"><tspan x="0" dy="0">PLAY</tspan></text><path d="M243.42137,168.00345v-2.60331h4.77273v2.60331z" fill="#f2fbff" fill-rule="nonzero" stroke="none" stroke-width="0" stroke-linecap="butt"/></g></g></svg>