<svg version="1.1" xmlns="http://www.w3.org/2000/svg" xmlns:xlink="http://www.w3.org/1999/xlink" width="50.72922" height="13.20292" viewBox="0,0,50.72922,13.20292"><g transform="translate(-238.17025,-172.06573)"><g data-paper-data="{&quot;isPaintingLayer&quot;:true}" fill-rule="nonzero" stroke-linejoin="miter" stroke-miterlimit="10" stroke-dasharray="" stroke-dashoffset="0" style="mix-blend-mode: normal"><path d="M257.64157,172.06573l0.94621,10.94972h-3.53725l-0.94621,-10.94972z" data-paper-data="{&quot;index&quot;:null}" fill="#74839a" stroke="none" stroke-width="0" stroke-linecap="butt"/><path d="M287.6503,179.38689v3.55957h-32.57641v-3.55957z" data-paper-data="{&quot;index&quot;:null}" fill="#74839a" stroke="none" stroke-width="0" stroke-linecap="butt"/><path d="M239.92025,180.12008l16.72338,-3.59281" data-paper-data="{&quot;index&quot;:null}" fill="none" stroke="#000000" stroke-width="3.5" stroke-linecap="round"/><path d="M273.0401,172.19573c0,0 2.80262,1.62104 3.29135,2.88673c0.52438,1.35802 -0.24447,5.0039 -0.24447,5.0039h-3.82813c0,0 1.24147,-2.46766 0.9444,-3.49503c-0.32536,-1.12518 -2.8194,-2.98935 -2.8194,-2.98935z" data-paper-data="{&quot;index&quot;:null}" fill="#74839a" stroke="none" stroke-width="0" stroke-linecap="butt"/><path d="M268.50885,177.6124v7.65625h-9.14063v-7.65625z" data-paper-data="{&quot;index&quot;:null}" fill="#52627a" stroke="none" stroke-width="0" stroke-linecap="butt"/><path d="M284.6026,181.20615v2.73438h-8.67188v-2.73438z" data-paper-data="{&quot;index&quot;:null}" fill="#52627a" stroke="none" stroke-width="0" stroke-linecap="butt"/><path d="M288.89947,180.19053v2.03125h-2.03125v-2.03125z" data-paper-data="{&quot;index&quot;:null}" fill="#74839a" stroke="none" stroke-width="0" stroke-linecap="butt"/></g></g></svg>